<svg width="270" height="166" viewBox="0 0 270 166" fill="none" xmlns="http://www.w3.org/2000/svg">
<g clip-path="url(#clip0_4546_949)">
<path d="M89.7062 77.4165C102.248 77.4165 112.414 67.2497 112.414 54.7083C112.414 42.167 102.248 32.0002 89.7062 32.0002C77.1648 32.0002 66.998 42.167 66.998 54.7083C66.998 67.2497 77.1648 77.4165 89.7062 77.4165Z" fill="#FF0038"/>
<path d="M94.5358 48.106C93.9895 47.5396 93.241 47.2766 92.4722 47.2766H86.5041C85.6949 47.2766 84.9665 47.6003 84.4405 48.106C81.4059 51.1811 79.3828 56.3805 79.3828 59.9411C79.3828 65.2416 83.8943 67.5075 89.4983 67.5075C95.1022 67.5075 99.6137 65.2416 99.6137 59.9411C99.6137 56.4007 97.5906 51.1811 94.556 48.106H94.5358Z" fill="white"/>
<path d="M85.2938 40.67C84.9394 40.67 84.6683 41.0922 84.7726 41.5545C85.0853 43.022 85.8151 44.6302 86.5657 45.4745C86.8993 45.8364 87.358 46.0374 87.8167 46.0374H90.7566C91.2153 46.0374 91.6531 45.8364 92.0076 45.4745C92.7582 44.6503 93.488 43.022 93.8007 41.5545C93.9258 41.0922 93.6756 40.67 93.3003 40.67H85.3147H85.2938Z" fill="white"/>
<path d="M92.3264 57.9489C92.1465 57.6368 91.8992 57.3916 91.5844 57.1909C91.2921 57.0125 90.9548 56.8565 90.6175 56.7673C90.2802 56.6558 89.9205 56.5889 89.6057 56.5221C89.2909 56.4552 89.0211 56.3883 88.7512 56.3214C88.4814 56.2545 88.3015 56.1653 88.1441 56.0316C87.9867 55.8978 87.9193 55.7194 87.9193 55.4742C87.9193 55.2958 87.9643 55.1397 88.0767 55.006C88.1891 54.8722 88.324 54.783 88.5039 54.7161C88.6838 54.6492 88.9086 54.6047 89.1335 54.6047C89.5832 54.6047 89.943 54.6938 90.2353 54.8722C90.4152 54.9837 90.5726 55.1174 90.685 55.2735C90.7974 55.4296 90.9998 55.4965 91.1797 55.4073L92.169 54.9168C92.3264 54.8276 92.3939 54.6492 92.3039 54.4932C92.0341 54.025 91.6519 53.646 91.1572 53.3784C90.8424 53.2001 90.5051 53.0886 90.1229 52.9994V52.1522C90.1229 51.9738 89.9655 51.8177 89.7856 51.8177H88.7512C88.5714 51.8177 88.414 51.9738 88.414 52.1522V52.9771C88.1217 53.044 87.8518 53.1109 87.582 53.2446C87.1098 53.4899 86.7051 53.802 86.4353 54.2033C86.1654 54.6047 86.0305 55.0506 86.0305 55.5634C86.0305 56.0538 86.1205 56.4329 86.3228 56.7673C86.5027 57.0794 86.7725 57.347 87.0873 57.5253C87.4021 57.7037 87.7394 57.8598 88.0992 57.9489C88.4589 58.0381 88.7962 58.1273 89.1335 58.1942C89.4258 58.2388 89.6956 58.3057 89.943 58.3726C90.1903 58.4394 90.3702 58.5286 90.5051 58.6401C90.64 58.7739 90.7075 58.9522 90.7075 59.1975C90.7075 59.3981 90.64 59.5765 90.5051 59.7103C90.3702 59.844 90.2128 59.9555 89.9879 60.0447C89.7856 60.1116 89.5382 60.1562 89.2684 60.1562C88.8187 60.1562 88.4365 60.067 88.1217 59.9109C87.9193 59.7995 87.7619 59.6657 87.627 59.5096C87.5146 59.3536 87.3122 59.2867 87.1323 59.3535L86.1654 59.844C86.008 59.9332 85.9406 60.1116 86.0305 60.2677C86.3003 60.7359 86.7051 61.1149 87.1998 61.3824C87.5595 61.5831 87.9643 61.6946 88.414 61.7837V62.631C88.414 62.8093 88.5714 62.9654 88.7512 62.9654H89.7856C89.9655 62.9654 90.1229 62.8093 90.1229 62.631V61.7837C90.4152 61.7168 90.685 61.65 90.9548 61.5162C91.4495 61.2932 91.8542 60.9588 92.1465 60.5575C92.4613 60.1562 92.5962 59.6657 92.5962 59.1752C92.5962 58.6847 92.5063 58.2834 92.3039 57.9489H92.3264Z" fill="#FF0038"/>
</g>
<rect x="114" y="57.3179" width="44.5905" height="44.5792" rx="22.2896" fill="#FF4E00"/>
<path d="M139.632 92.0618L134.021 88.1849C133.788 88.0464 133.655 87.7695 133.655 87.4925C133.655 82.2656 133.655 66.6193 133.655 66.6193C133.655 65.9616 134.353 65.5808 134.884 65.927L139.931 69.4232C140.495 69.8039 140.827 70.4616 140.827 71.1539V91.3695C140.861 92.0272 140.163 92.4426 139.632 92.0618ZM130.899 75.3771L126.218 73.0232C125.886 72.8155 125.886 72.2963 126.218 72.0886L131.497 67.9693C131.862 67.727 132.327 68.0039 132.327 68.4539V74.5463C132.327 74.7194 132.228 74.8924 132.095 75.0309C131.929 75.1347 131.663 75.3424 131.497 75.4463C131.298 75.4809 131.066 75.5155 130.899 75.3771Z" fill="white"/>
<g filter="url(#filter0_d_4546_949)">
<rect x="114" y="8" width="44.5905" height="44.5792" rx="22.2896" fill="#1C65AB"/>
</g>
<path d="M143.714 24.6001H128.948C125.1 24.6505 122.032 27.8751 122.5 31.7043C122.812 34.6769 125.36 37.045 128.428 37.3473C130.976 37.5488 133.211 36.39 134.511 34.5762C134.719 34.2739 135.083 34.0723 135.447 34.0723H137.111C137.475 34.0723 137.839 34.2739 138.047 34.5762C139.243 36.2892 141.271 37.4481 143.61 37.3977C147.042 37.3473 149.954 34.5762 150.11 31.2508C150.266 27.6232 147.354 24.7009 143.714 24.6001ZM131.964 31.0493C131.964 31.402 131.652 31.6539 131.34 31.6539H129.988V32.9639C129.988 33.3166 129.676 33.5685 129.364 33.5685H128.844C128.48 33.5685 128.22 33.2662 128.22 32.9639V31.6539H126.764C126.4 31.6539 126.14 31.3516 126.14 31.0493V30.5455C126.14 30.1928 126.452 29.9408 126.764 29.9408H128.168V28.5805C128.168 28.2278 128.48 27.9759 128.792 27.9759H129.312C129.676 27.9759 129.936 28.2782 129.936 28.5805V29.8905H131.288C131.652 29.8905 131.912 30.1928 131.912 30.4951V31.0493H131.964ZM143.246 31.9562C143.038 32.6112 142.311 32.9639 141.635 32.8127C140.959 32.6112 140.595 31.9058 140.751 31.2508C140.959 30.5958 141.687 30.2431 142.363 30.3943C143.038 30.5455 143.454 31.3012 143.246 31.9562ZM146.574 30.2431C146.366 30.8981 145.638 31.2508 144.962 31.0997C144.286 30.8981 143.922 30.1928 144.078 29.5378C144.286 28.8828 145.014 28.5301 145.69 28.6812C146.366 28.8828 146.73 29.5882 146.574 30.2431Z" fill="white"/>
<g clip-path="url(#clip1_4546_949)">
<path d="M89.2953 127.591C101.609 127.591 111.591 117.609 111.591 105.295C111.591 92.9821 101.609 83.0002 89.2953 83.0002C76.9819 83.0002 67 92.9821 67 105.295C67 117.609 76.9819 127.591 89.2953 127.591Z" fill="#19AE40"/>
<path d="M94.5167 93.2538H84.7453C82.9397 93.2538 82.2493 93.5421 81.7403 94.0554C81.2313 94.5687 80.9453 95.2648 80.9453 95.9906V114.601C80.9453 115.327 81.2313 116.023 81.7403 116.537C82.2493 117.05 82.9397 117.338 84.7453 117.338H94.5167C95.2366 117.338 95.9269 117.05 96.436 116.537C96.945 116.023 97.231 115.327 97.231 114.601V95.9906C97.231 95.2648 96.945 94.5687 96.436 94.0554C95.9269 93.5421 95.2366 93.2538 94.5167 93.2538ZM89.0881 116.243C88.187 116.243 87.4596 115.51 87.4596 114.601C87.4596 113.693 88.187 112.959 89.0881 112.959C89.9893 112.959 90.7167 113.693 90.7167 114.601C90.7167 115.51 89.9893 116.243 89.0881 116.243ZM94.8167 111.52C94.8167 111.71 94.6627 111.864 94.4726 111.864H83.7038C83.5138 111.864 83.3598 111.71 83.3598 111.52V96.8821C83.3598 96.6921 83.5138 96.538 83.7038 96.538H94.4726C94.6627 96.538 94.8167 96.6921 94.8167 96.8821V111.52Z" fill="white"/>
</g>
<rect x="160.727" y="83" width="44.4966" height="44.2073" rx="22.1037" fill="#2FC23A"/>
<g clip-path="url(#clip2_4546_949)">
<path d="M177.416 102.093C177.644 102.639 178.145 102.787 178.691 102.787C179.101 102.787 179.454 102.65 179.727 102.388L181.093 103.345C180.524 104.062 179.659 104.403 178.645 104.403C176.676 104.403 175.458 103.094 175.458 101.41C175.458 99.7022 176.71 98.3932 178.486 98.3932C180.194 98.3932 181.423 99.6794 181.423 101.387C181.423 101.626 181.4 101.853 181.343 102.093H177.416ZM177.393 100.784H179.579C179.408 100.192 178.964 99.9867 178.509 99.9867C177.963 99.9867 177.553 100.26 177.393 100.784ZM183.84 102.093C184.067 102.639 184.568 102.787 185.115 102.787C185.524 102.787 185.877 102.65 186.15 102.388L187.516 103.345C186.947 104.062 186.082 104.403 185.069 104.403C183.1 104.403 181.882 103.094 181.882 101.41C181.882 99.7022 183.134 98.3932 184.91 98.3932C186.617 98.3932 187.846 99.6794 187.846 101.387C187.846 101.626 187.824 101.853 187.767 102.093H183.84ZM183.817 100.784H186.003C185.832 100.192 185.388 99.9867 184.933 99.9867C184.386 99.9867 183.976 100.26 183.817 100.784ZM190.815 102.491H192.943V104.244H188.288V102.946L190.302 100.305H188.401V98.5525H192.829V99.8501L190.815 102.491ZM194.78 98.0858C194.188 98.0858 193.687 97.585 193.687 96.9931C193.687 96.4012 194.188 95.9117 194.78 95.9117C195.372 95.9117 195.873 96.4012 195.873 96.9931C195.873 97.585 195.372 98.0858 194.78 98.0858ZM193.835 104.244V98.5525H195.725V104.244H193.835Z" fill="white"/>
<rect x="168.139" y="105.982" width="28.9987" height="7.0464" rx="3.5232" fill="white"/>
<path d="M172.175 110.505L172.065 110.133H171.207L171.097 110.505H170.382L171.233 107.928H172.035L172.886 110.505H172.175ZM171.376 109.566H171.896L171.634 108.69L171.376 109.566ZM173 107.928H173.659V110.505H173V107.928ZM175.334 110.505L174.885 109.673H174.649V110.505H173.99V107.928H175.021C175.544 107.928 175.949 108.299 175.949 108.819C175.949 109.135 175.776 109.404 175.511 109.551L176.041 110.505H175.334ZM174.649 108.535V109.113H175.014C175.176 109.117 175.29 108.999 175.29 108.826C175.29 108.657 175.176 108.535 175.014 108.535H174.649ZM177.913 107.928V108.565H177.276V110.505H176.617V108.565H175.98V107.928H177.913ZM178.078 107.928H178.737V110.505H178.078V107.928ZM181.697 107.928V110.505H181.042V109.117L180.416 110.151H180.35L179.728 109.12V110.505H179.069V107.928H179.728L180.383 109.028L181.042 107.928H181.697ZM182.692 109.886H183.69V110.505H182.033V107.928H183.671V108.542H182.692V108.9H183.579V109.507H182.692V109.886ZM184.782 111.241V107.854H185.025V111.241H184.782ZM187.257 107.928C187.967 107.928 188.508 108.487 188.508 109.216C188.508 109.945 187.967 110.505 187.257 110.505H186.207V107.928H187.257ZM187.257 109.868C187.61 109.868 187.864 109.61 187.864 109.216C187.864 108.822 187.61 108.565 187.257 108.565H186.885V109.868H187.257ZM190.219 110.505L190.109 110.133H189.251L189.14 110.505H188.426L189.276 107.928H190.079L190.929 110.505H190.219ZM189.42 109.566H189.939L189.678 108.69L189.42 109.566ZM192.627 107.928V108.565H191.99V110.505H191.331V108.565H190.694V107.928H192.627ZM194.181 110.505L194.071 110.133H193.213L193.102 110.505H192.388L193.239 107.928H194.041L194.892 110.505H194.181ZM193.382 109.566H193.901L193.64 108.69L193.382 109.566Z" fill="#2FC23A"/>
<path d="M175.186 101.103C175.186 103.049 173.608 104.627 171.662 104.627C169.716 104.627 168.139 103.049 168.139 101.103C168.139 99.157 169.717 97.5796 171.663 97.5796C173.609 97.5796 175.186 99.157 175.186 101.103" fill="white"/>
<path d="M173.786 100.535C173.569 100.366 173.33 100.111 173.361 99.7581C173.524 99.7115 173.617 99.6111 173.661 99.5174C173.727 99.3787 173.724 99.2373 173.599 99.0965C173.584 99.0789 173.554 99.0908 173.556 99.1146C173.562 99.2182 173.567 99.4004 173.334 99.4486C173.079 99.5014 172.639 99.4382 172.49 99.301C172.354 99.1747 172.339 99.0235 172.462 98.7885C172.473 98.7673 172.451 98.744 172.429 98.7548C172.315 98.8102 172.107 98.9195 172.111 99.2337C172.115 99.4429 172.236 99.6106 172.403 99.6784C171.606 99.9243 171.277 99.6287 170.372 99.6158C169.619 99.6049 169.443 100.232 169.484 100.875C169.501 101.128 169.522 101.429 169.573 101.633C169.614 101.8 169.706 101.897 169.698 102.109C169.692 102.28 169.668 102.35 169.695 102.513C169.701 102.547 169.722 102.569 169.758 102.581C169.85 102.613 169.958 102.597 170.002 102.583C170.043 102.571 170.074 102.549 170.066 102.513C169.992 102.193 169.924 101.759 169.996 101.471C170.007 101.43 170.041 101.389 170.104 101.424C170.205 101.479 170.312 101.566 170.452 101.713C170.663 101.936 170.863 102.371 170.893 102.7C170.898 102.75 170.923 102.791 170.964 102.806C171.077 102.846 171.191 102.832 171.251 102.795C171.277 102.779 171.291 102.755 171.284 102.727C171.207 102.415 170.958 102.04 170.936 101.709C170.931 101.642 170.954 101.635 171.01 101.645C171.094 101.66 171.16 101.665 171.222 101.668C171.242 101.669 171.262 101.678 171.275 101.694C171.53 102.005 171.817 102.446 171.796 102.905C171.795 102.931 171.807 102.954 171.826 102.97C171.913 103.042 171.915 103.203 171.929 103.35C171.932 103.382 171.952 103.409 171.98 103.42C172.086 103.46 172.22 103.467 172.331 103.424C172.351 103.416 172.364 103.397 172.361 103.376C172.32 103.087 172.09 102.845 172.144 102.411C172.156 102.317 172.23 102.181 172.28 102.007C172.399 101.593 172.37 101.462 172.487 101.226C172.562 101.075 172.733 100.878 172.971 101.016C173.153 101.121 173.28 101.143 173.41 101.126C173.638 101.095 173.785 100.898 173.838 100.691C173.853 100.633 173.831 100.572 173.784 100.535" fill="#2FC23A"/>
</g>
<g clip-path="url(#clip3_4546_949)">
<path d="M182.527 76.5908C194.834 76.5908 204.811 66.6089 204.811 54.2955C204.811 41.9822 194.834 32.0002 182.527 32.0002C170.219 32.0002 160.242 41.9822 160.242 54.2955C160.242 66.6089 170.219 76.5908 182.527 76.5908Z" fill="#FF9200"/>
<path d="M191.22 51.5384H184.058L185.585 42.8869C185.724 42.0491 184.692 41.5619 184.157 42.205L172.828 55.6108C172.372 56.1564 172.749 56.9748 173.463 56.9748H180.625L179.098 65.7042C178.959 66.5421 179.99 67.0292 180.526 66.3862L191.835 52.9024C192.291 52.3568 191.914 51.5384 191.2 51.5384H191.22Z" fill="white"/>
</g>
<g clip-path="url(#clip4_4546_949)">
<path d="M136 154C148.703 154 159 143.703 159 131C159 118.297 148.703 108 136 108C123.297 108 113 118.297 113 131C113 143.703 123.297 154 136 154Z" fill="#009CF4"/>
<path d="M135.879 143.83C135.944 143.903 136.058 143.904 136.125 143.833C136.929 142.973 137.616 141.979 138.167 140.886C138.72 139.787 139.176 138.47 139.534 136.955C139.559 136.848 139.478 136.746 139.368 136.746H132.655C132.545 136.746 132.464 136.848 132.489 136.955C132.828 138.367 133.283 139.641 133.835 140.778C134.386 141.913 135.074 142.93 135.879 143.83ZM132.382 143.344C132.535 143.4 132.669 143.229 132.585 143.091C132.079 142.259 131.646 141.38 131.261 140.453C130.826 139.383 130.47 138.193 130.176 136.88C130.158 136.802 130.089 136.746 130.009 136.746H124.875C124.747 136.746 124.665 136.883 124.726 136.996C125.637 138.654 126.666 139.958 127.851 140.908C129.002 141.83 130.501 142.659 132.382 143.344ZM139.425 143.064C139.342 143.201 139.472 143.368 139.623 143.315C141.222 142.753 142.661 141.937 143.957 140.886C145.298 139.798 146.388 138.495 147.247 136.997C147.312 136.885 147.23 136.746 147.1 136.746H142.011C141.932 136.746 141.864 136.801 141.845 136.877C141.531 138.169 141.176 139.34 140.74 140.409C140.372 141.358 139.924 142.243 139.425 143.064ZM123.863 134.492H129.551C129.652 134.492 129.73 134.406 129.721 134.306C129.666 133.708 129.629 133.163 129.61 132.672C129.61 132.13 129.61 131.61 129.61 131.09C129.61 130.461 129.61 129.919 129.653 129.421C129.672 128.996 129.708 128.519 129.777 127.99C129.79 127.887 129.71 127.796 129.607 127.796H124.013C123.937 127.796 123.87 127.846 123.849 127.92C123.695 128.474 123.581 128.955 123.541 129.399C123.477 129.876 123.455 130.44 123.455 131.09C123.455 131.74 123.477 132.325 123.541 132.824C123.604 133.338 123.71 133.873 123.878 134.472C123.881 134.482 123.873 134.492 123.863 134.492V134.492ZM132.013 134.345C132.024 134.43 132.097 134.492 132.182 134.492H139.841C139.926 134.492 139.998 134.43 140.009 134.345C140.102 133.633 140.142 133.053 140.182 132.607C140.204 132.13 140.225 131.61 140.225 131.09C140.225 130.57 140.225 130.115 140.182 129.659C140.162 129.234 140.105 128.657 140.01 127.964C139.998 127.88 139.926 127.817 139.841 127.817H132.182C132.097 127.817 132.024 127.88 132.013 127.964C131.92 128.674 131.88 129.233 131.84 129.659C131.819 130.115 131.797 130.591 131.797 131.09C131.797 131.61 131.797 132.108 131.84 132.607C131.88 133.074 131.92 133.635 132.013 134.345ZM142.22 134.302C142.209 134.404 142.288 134.492 142.39 134.492H147.988C148.064 134.492 148.131 134.442 148.152 134.368C148.306 133.811 148.42 133.308 148.46 132.824C148.525 132.303 148.546 131.74 148.546 131.09C148.546 130.44 148.525 129.876 148.46 129.399C148.4 128.956 148.304 128.456 148.152 127.918C148.132 127.845 148.065 127.796 147.989 127.796H142.425C142.326 127.796 142.247 127.88 142.255 127.979C142.314 128.757 142.371 129.367 142.391 129.789C142.413 130.245 142.434 130.678 142.434 131.09C142.434 131.632 142.434 132.152 142.37 132.65C142.331 133.086 142.291 133.647 142.22 134.302ZM141.803 125.431C141.821 125.508 141.89 125.563 141.969 125.563H147.118C147.243 125.563 147.326 125.433 147.27 125.321C146.466 123.716 145.391 122.366 144.042 121.272C142.737 120.212 141.248 119.448 139.561 118.961C139.41 118.918 139.29 119.085 139.373 119.218C139.888 120.041 140.325 120.914 140.697 121.835C141.112 122.864 141.488 124.076 141.803 125.431ZM132.46 125.544C132.453 125.551 132.458 125.563 132.468 125.563H139.415C139.523 125.563 139.604 125.464 139.58 125.358C139.299 124.109 138.862 122.898 138.252 121.727C137.637 120.545 136.923 119.501 136.11 118.578C136.05 118.509 135.945 118.501 135.878 118.565C135.122 119.281 134.343 120.699 133.835 121.727C133.299 122.832 132.956 123.677 132.463 125.539C132.462 125.54 132.461 125.542 132.46 125.544V125.544ZM124.592 125.563H130.029C130.11 125.563 130.179 125.506 130.196 125.427C130.469 124.138 130.803 122.971 131.197 121.965C131.573 121.034 132.015 120.136 132.552 119.257C132.633 119.125 132.512 118.96 132.363 119.003C130.691 119.49 129.204 120.251 127.937 121.272C126.57 122.373 125.436 123.819 124.58 125.544C124.575 125.553 124.582 125.563 124.592 125.563V125.563Z" fill="white"/>
</g>
<defs>
<filter id="filter0_d_4546_949" x="113.059" y="7.68646" width="46.4711" height="46.4605" filterUnits="userSpaceOnUse" color-interpolation-filters="sRGB">
<feFlood flood-opacity="0" result="BackgroundImageFix"/>
<feColorMatrix in="SourceAlpha" type="matrix" values="0 0 0 0 0 0 0 0 0 0 0 0 0 0 0 0 0 0 127 0" result="hardAlpha"/>
<feOffset dy="0.627074"/>
<feGaussianBlur stdDeviation="0.470306"/>
<feComposite in2="hardAlpha" operator="out"/>
<feColorMatrix type="matrix" values="0 0 0 0 0 0 0 0 0 0 0 0 0 0 0 0 0 0 0.07 0"/>
<feBlend mode="normal" in2="BackgroundImageFix" result="effect1_dropShadow_4546_949"/>
<feBlend mode="normal" in="SourceGraphic" in2="effect1_dropShadow_4546_949" result="shape"/>
</filter>
<clipPath id="clip0_4546_949">
<rect width="45.4163" height="45.4163" fill="white" transform="translate(66.998 32.0001)"/>
</clipPath>
<clipPath id="clip1_4546_949">
<rect width="44.5905" height="44.5905" fill="white" transform="translate(67 83)"/>
</clipPath>
<clipPath id="clip2_4546_949">
<rect width="29.1805" height="18.9523" fill="white" transform="translate(167.957 95.0488)"/>
</clipPath>
<clipPath id="clip3_4546_949">
<rect width="44.5905" height="44.5905" fill="white" transform="translate(160.242 32)"/>
</clipPath>
<clipPath id="clip4_4546_949">
<rect width="46" height="46" fill="white" transform="translate(113 108)"/>
</clipPath>
</defs>
</svg>
